<svg width="24" height="24" viewBox="0 0 24 24" fill="none" xmlns="http://www.w3.org/2000/svg">
    <path d="M18.0618 0H6.24204C2.99113 0 0.322754 2.66838 0.322754 5.93807V17.7578C0.322754 21.0088 2.99113 23.6771 6.24204 23.6771H18.0618C21.3315 23.6771 23.9999 21.0088 23.9999 17.7391V5.93807C23.9999 2.66838 21.3315 0 18.0618 0ZM11.5224 4.86697C11.56 4.28443 12.1049 4.49114 12.3868 4.45356C15.9196 4.5663 18.9638 7.74205 18.9262 11.1621C18.9262 11.5003 19.039 11.9889 18.5316 11.9889C18.043 11.9889 18.1746 11.4815 18.1182 11.1433C17.6484 7.51655 15.9572 5.80653 12.2741 5.24279C11.9734 5.20521 11.5036 5.26158 11.5224 4.86697ZM16.8028 11.3124C16.239 11.3876 16.3518 10.899 16.2954 10.5795C15.9196 8.36216 15.1304 7.55413 12.8566 7.06556C12.5184 6.99039 11.9922 7.04676 12.0862 6.5394C12.1613 6.05082 12.6311 6.21994 12.9881 6.25753C15.2619 6.52061 17.1222 8.45612 17.1035 10.5795C17.0659 10.805 17.2162 11.2372 16.8028 11.3124ZM15.3934 10.1473C15.3934 10.448 15.3559 10.7299 15.0176 10.7675C14.7733 10.805 14.623 10.5983 14.5854 10.354C14.4914 9.45206 14.0029 8.90711 13.0633 8.75678C12.7814 8.7192 12.5184 8.62524 12.6499 8.24941C12.7439 8.00513 12.9693 7.96754 13.2136 7.96754C14.2284 7.94875 15.3934 9.13261 15.3934 10.1473ZM18.9638 17.0814C18.5692 18.1525 17.235 19.2424 16.0887 19.2236C15.9196 19.186 15.6001 19.1296 15.3183 19.0169C10.2822 16.8934 6.61786 13.3982 4.55081 8.39974C3.85553 6.72731 4.5884 5.29917 6.33599 4.73543C6.65545 4.62268 6.95611 4.62268 7.27556 4.73543C8.02722 4.99851 9.92515 7.57292 9.96273 8.32458C10.0003 8.90711 9.5869 9.22656 9.19228 9.48964C8.42184 9.99701 8.42184 10.6359 8.76008 11.3688C9.49294 12.9848 10.752 14.1123 12.3868 14.8264C12.9693 15.0895 13.5519 15.0707 13.9465 14.4694C14.6606 13.3982 15.5438 13.4546 16.5021 14.1123C16.9907 14.4506 17.4793 14.77 17.9303 15.1271C18.5504 15.6344 19.3396 16.0478 18.9638 17.0814Z" fill="#F5F5F5"/>
</svg>
