<svg width="18" height="17" viewBox="0 0 18 17" fill="none" xmlns="http://www.w3.org/2000/svg">
    <path fill-rule="evenodd" clip-rule="evenodd" d="M12.9 0C14.0103 0 14.9548 0.709586 15.3049 1.7H17.15C17.6194 1.7 18 2.08056 18 2.55C18 3.01944 17.6194 3.4 17.15 3.4H15.3049C14.9548 4.39041 14.0103 5.1 12.9 5.1C11.7897 5.1 10.8452 4.39041 10.4951 3.4H0.85C0.380558 3.4 0 3.01944 0 2.55C0 2.08056 0.380558 1.7 0.850001 1.7H10.4951C10.8452 0.709586 11.7897 0 12.9 0ZM12.9009 3.4C13.3699 3.39951 13.75 3.01914 13.75 2.55C13.75 2.08056 13.3694 1.7 12.9 1.7C12.4306 1.7 12.05 2.08056 12.05 2.55C12.05 3.01923 12.4302 3.39965 12.8994 3.4C12.8996 3.4 12.9007 3.4 12.9009 3.4C12.9008 3.4 12.901 3.4 12.9009 3.4Z" fill="white"/>
    <path fill-rule="evenodd" clip-rule="evenodd" d="M6.1 5.95C7.21029 5.95 8.15484 6.65959 8.5049 7.65H17.15C17.6194 7.65 18 8.03056 18 8.5C18 8.96944 17.6194 9.35 17.15 9.35H8.5049C8.15484 10.3404 7.21029 11.05 6.1 11.05C4.98971 11.05 4.04516 10.3404 3.6951 9.35H0.85C0.380558 9.35 0 8.96944 0 8.5C0 8.03056 0.380558 7.65 0.850001 7.65H3.6951C4.04516 6.65959 4.98971 5.95 6.1 5.95ZM6.1 9.35C6.56944 9.35 6.95 8.96944 6.95 8.5C6.95 8.03056 6.56944 7.65 6.1 7.65C5.63056 7.65 5.25 8.03056 5.25 8.5C5.25 8.96944 5.63056 9.35 6.1 9.35Z" fill="white"/>
    <path fill-rule="evenodd" clip-rule="evenodd" d="M10.35 11.9C9.23971 11.9 8.29516 12.6096 7.9451 13.6H0.899999C0.402943 13.6 0 14.0029 0 14.5C0 14.9971 0.402943 15.4 0.899999 15.4H7.98284C8.35956 16.3378 9.27745 17 10.35 17C11.4225 17 12.3404 16.3378 12.7172 15.4H17.1C17.5971 15.4 18 14.9971 18 14.5C18 14.0029 17.5971 13.6 17.1 13.6H12.7549C12.4048 12.6096 11.4603 11.9 10.35 11.9ZM10.35 15.3C10.8194 15.3 11.2 14.9194 11.2 14.45C11.2 13.9807 10.8197 13.6003 10.3505 13.6C10.3503 13.6 10.3507 13.6 10.3505 13.6C10.3502 13.6 10.3493 13.6 10.349 13.6C9.88001 13.6005 9.5 13.9809 9.5 14.45C9.5 14.9194 9.88056 15.3 10.35 15.3Z" fill="white"/>
</svg>
