<svg width="22" height="22" viewBox="0 0 22 22" fill="none" xmlns="http://www.w3.org/2000/svg">
    <path fill-rule="evenodd" clip-rule="evenodd" d="M10.2978 21.7578C9.77508 21.7578 9.35138 21.3535 9.35138 20.8546V17.8146C4.27363 17.408 0.142742 13.7637 0.142742 9.1384C0.142742 4.22875 4.7972 0.424438 10.2978 0.424438C13.3075 0.424438 16.1008 1.29148 18.156 3.0074C20.2269 4.73633 21.4761 7.26877 21.4761 10.4402C21.4761 13.6634 19.8695 16.4884 17.7191 18.4906C15.5843 20.4784 12.8013 21.7578 10.2978 21.7578ZM14.9021 11.0911C14.0544 11.0911 13.3673 10.4354 13.3673 9.62658C13.3673 8.81774 14.0544 8.16205 14.9021 8.16205C15.7497 8.16205 16.4369 8.81774 16.4369 9.62658C16.4369 10.4354 15.7497 11.0911 14.9021 11.0911ZM10.8093 11.0911C9.96171 11.0911 9.27454 10.4354 9.27454 9.62658C9.27454 8.81774 9.96171 8.16205 10.8093 8.16205C11.657 8.16205 12.3441 8.81774 12.3441 9.62658C12.3441 10.4354 11.657 11.0911 10.8093 11.0911ZM5.18181 9.62658C5.18181 10.4354 5.86898 11.0911 6.71658 11.0911C7.56429 11.0911 8.25136 10.4354 8.25136 9.62658C8.25136 8.81774 7.56429 8.16205 6.71658 8.16205C5.86898 8.16205 5.18181 8.81774 5.18181 9.62658Z" fill="white"/>
</svg>
