<svg width="23" height="24" viewBox="0 0 23 24" fill="none" xmlns="http://www.w3.org/2000/svg">
    <path d="M15.0295 0H7.96924C1.52637 0 -0.000976562 1.59375 -0.000976562 8.31675V15.684C-0.000976562 22.407 1.52637 24.0007 7.96924 24.0007H15.0295C21.4724 24.0007 22.9997 22.407 22.9997 15.684V8.31675C22.9997 1.59375 21.4573 0 15.0295 0ZM18.5672 17.121H16.8976C16.2651 17.121 16.0703 16.5975 14.9325 15.3945C13.9442 14.3947 13.5065 14.262 13.2628 14.262C12.9186 14.262 12.8208 14.3633 12.8208 14.856V16.4303C12.8208 16.8525 12.6936 17.106 11.6226 17.106C9.85165 17.106 7.88659 15.9885 6.50874 13.9065C4.43084 10.8555 3.8623 8.57025 3.8623 8.09775C3.8623 7.8435 3.95934 7.60575 4.42724 7.60575H6.10049C6.52384 7.60575 6.68484 7.809 6.84943 8.2815C7.67671 10.7738 9.05455 12.957 9.62309 12.957C9.83296 12.957 9.92999 12.8558 9.92999 12.297V9.723C9.86602 8.53575 9.26731 8.43375 9.26731 8.01225C9.26731 7.809 9.42831 7.60575 9.68634 7.60575H12.3177C12.6735 7.60575 12.8043 7.809 12.8043 8.24625V11.7188C12.8043 12.0938 12.9653 12.2265 13.0623 12.2265C13.2722 12.2265 13.4519 12.0938 13.8407 11.6873C15.0425 10.281 15.9035 8.11275 15.9035 8.11275C16.0156 7.8585 16.2104 7.62075 16.6338 7.62075H18.307C18.8087 7.62075 18.9208 7.89 18.8087 8.265C18.5988 9.2805 16.5511 12.2963 16.5511 12.2963C16.375 12.6007 16.3075 12.7335 16.5511 13.0732C16.7308 13.3275 17.3151 13.8548 17.704 14.3273C18.4191 15.1748 18.969 15.8857 19.1156 16.3778C19.2802 16.866 19.0373 17.1203 18.5651 17.1203L18.5672 17.121Z" fill="#F5F5F5"/>
</svg>
