<svg width="24" height="24" viewBox="0 0 24 24" fill="none" xmlns="http://www.w3.org/2000/svg">
    <path d="M11.8415 0H11.8356C5.30812 0 0 5.3096 0 11.8386C0 14.4283 0.834619 16.8285 2.25377 18.7774L0.778386 23.1755L5.32883 21.7208C7.20081 22.9609 9.43386 23.6771 11.8415 23.6771C18.369 23.6771 23.6771 18.3661 23.6771 11.8386C23.6771 5.31108 18.369 0 11.8415 0ZM18.7301 16.7175C18.4445 17.524 17.3109 18.1929 16.4068 18.3883C15.7882 18.52 14.9802 18.625 12.2603 17.4974C8.78125 16.0561 6.54081 12.5208 6.36619 12.2914C6.19897 12.062 4.96036 10.4194 4.96036 8.72058C4.96036 7.02175 5.82309 6.19453 6.17085 5.83937C6.45646 5.54785 6.92852 5.41466 7.38135 5.41466C7.52785 5.41466 7.65955 5.42206 7.77794 5.42798C8.1257 5.44278 8.30031 5.4635 8.52969 6.01251C8.81529 6.70063 9.51081 8.39946 9.59368 8.57408C9.67803 8.7487 9.76238 8.98547 9.64399 9.21484C9.533 9.45161 9.43534 9.55668 9.26072 9.75794C9.0861 9.95919 8.92036 10.1131 8.74574 10.3291C8.58592 10.5171 8.40538 10.7183 8.60664 11.0661C8.80789 11.4065 9.50341 12.5415 10.5274 13.453C11.8489 14.6295 12.9203 15.0054 13.3036 15.1652C13.5892 15.2836 13.9296 15.2555 14.1382 15.0335C14.4031 14.7479 14.7301 14.2744 15.0631 13.8082C15.2999 13.4738 15.5988 13.4323 15.9125 13.5507C16.2322 13.6617 17.9236 14.4978 18.2713 14.6709C18.6191 14.8456 18.8485 14.9284 18.9328 15.0749C19.0157 15.2214 19.0157 15.9096 18.7301 16.7175Z" fill="#F5F5F5"/>
</svg>
